# xmcd CD database file
#
# Track frame offsets:
#	150
#	22735
#	43312
#	65822
#
# Disc length: 1149 seconds
#
# Revision: 4
# Processed by: cddbd v1.5.1PL2 Copyright (c) Steve Scherf et al.
# Submitted via: CDex 1.51
#
DISCID=31047b04
DTITLE=YOU - 幸せでゆこう (Single)
DYEAR=19970516
DGENRE=JPop
TTITLE0=幸せでゆこう
TTITLE1=楽しい大人
TTITLE2=幸せでゆこう（オリジナル・カラオケ）
TTITLE3=楽しい大人（オリジナル・カラオケ）
EXTD=YEAR: 19970516
EXTT0=
EXTT1=
EXTT2=
EXTT3=
PLAYORDER=
